<svg preserveAspectRatio="none" overflow="visible" style="display: block;" width="17.9989" height="9.99912" viewBox="0 0 17.9989 9.99912" fill="none" xmlns="http://www.w3.org/2000/svg">
<path id="Flood Level / Chevron" fill-rule="evenodd" clip-rule="evenodd" d="M0.0758232 0.617334C0.151516 0.434586 0.279706 0.27839 0.444179 0.168504C0.608652 0.0586181 0.802019 -2.24483e-05 0.999823 6.44641e-09H16.9998C17.1975 0.000173856 17.3906 0.0589173 17.5549 0.168811C17.7192 0.278704 17.8473 0.434818 17.9229 0.617435C17.9985 0.800053 18.0183 1.00098 17.9798 1.19485C17.9413 1.38871 17.8462 1.56682 17.7065 1.70667L9.70649 9.70667C9.51899 9.89393 9.26482 9.99912 8.99982 9.99912C8.73482 9.99912 8.48066 9.89393 8.29316 9.70667L0.293156 1.70667C0.153301 1.56691 0.0580108 1.38884 0.0193275 1.19495C-0.0193557 1.00106 0.000304386 0.800055 0.0758232 0.617334Z" fill="#8491A5"/>
</svg>
