<svg preserveAspectRatio="none" overflow="visible" style="display: block;" width="169.6" height="169.6" viewBox="0 0 169.6 169.6" fill="none" xmlns="http://www.w3.org/2000/svg">
<g id="Profile Avatar">
<g id="Profile Avatar / Background" filter="url(#filter0_d_0_4)">
<circle cx="84.8" cy="78.8" r="74" fill="#7DA4C0" fill-opacity="0.15" shape-rendering="crispEdges"/>
<circle cx="84.8" cy="78.8" r="74.5" stroke="#7DA4C0" shape-rendering="crispEdges"/>
</g>
<g id="Profile Avatar / User Icon">
<g id="Vector">
</g>
<path id="Vector_2" d="M132.335 119.206C138.752 111.484 143.216 102.331 145.348 92.5194C147.479 82.708 147.217 72.5274 144.582 62.839C141.947 53.1505 137.018 44.2392 130.21 36.8588C123.403 29.4785 114.918 23.8462 105.474 20.4385C96.0298 17.0307 85.9036 15.9478 75.9522 17.2813C66.0008 18.6147 56.517 22.3254 48.3029 28.0993C40.0889 33.8733 33.3864 41.5406 28.7623 50.4528C24.1383 59.3649 21.7287 69.2597 21.7375 79.3C21.7413 93.8957 26.8847 108.024 36.2654 119.206L36.176 119.282C36.4888 119.657 36.8463 119.979 37.1681 120.35C37.5703 120.81 38.0037 121.244 38.4193 121.691C39.6646 123.052 40.9606 124.348 42.3072 125.578C42.7242 125.948 43.1413 126.308 43.5584 126.66C44.9884 127.896 46.4631 129.061 47.9825 130.154C48.1791 130.288 48.3578 130.463 48.5545 130.601V130.548C59.0205 137.913 71.5063 141.867 84.3045 141.867C97.1027 141.867 109.588 137.913 120.054 130.548V130.601C120.251 130.463 120.425 130.288 120.626 130.154C122.146 129.058 123.621 127.893 125.051 126.66C125.468 126.305 125.885 125.945 126.302 125.578C127.645 124.348 128.941 123.052 130.19 121.691C130.605 121.244 131.034 120.81 131.441 120.35C131.758 119.979 132.12 119.657 132.433 119.277L132.335 119.206ZM84.3 43.55C88.2773 43.55 92.1652 44.7294 95.4722 46.939C98.7791 49.1487 101.357 52.2893 102.879 55.9639C104.401 59.6384 104.799 63.6817 104.023 67.5825C103.247 71.4834 101.332 75.0665 98.5195 77.8788C95.7071 80.6912 92.124 82.6064 88.2231 83.3824C84.3223 84.1583 80.279 83.76 76.6045 82.238C72.93 80.716 69.7893 78.1385 67.5797 74.8315C65.37 71.5246 64.1906 67.6366 64.1906 63.6594C64.1906 58.326 66.3093 53.2111 70.0805 49.4399C73.8518 45.6687 78.9667 43.55 84.3 43.55ZM48.5813 119.206C48.6588 113.338 51.0433 107.737 55.219 103.614C59.3946 99.4912 65.0256 97.178 70.8938 97.175H97.7063C103.574 97.178 109.205 99.4912 113.381 103.614C117.557 107.737 119.941 113.338 120.019 119.206C110.218 128.038 97.4929 132.925 84.3 132.925C71.1071 132.925 58.382 128.038 48.5813 119.206Z" fill="#4B5A77"/>
</g>
</g>
<defs>
<filter id="filter0_d_0_4" x="0" y="0" width="169.6" height="169.6" filterUnits="userSpaceOnUse" color-interpolation-filters="sRGB">
<feFlood flood-opacity="0" result="BackgroundImageFix"/>
<feColorMatrix in="SourceAlpha" type="matrix" values="0 0 0 0 0 0 0 0 0 0 0 0 0 0 0 0 0 0 127 0" result="hardAlpha"/>
<feOffset dy="6"/>
<feGaussianBlur stdDeviation="4.9"/>
<feComposite in2="hardAlpha" operator="out"/>
<feColorMatrix type="matrix" values="0 0 0 0 0.489899 0 0 0 0 0.641275 0 0 0 0 0.754808 0 0 0 1 0"/>
<feBlend mode="normal" in2="BackgroundImageFix" result="effect1_dropShadow_0_4"/>
<feBlend mode="normal" in="SourceGraphic" in2="effect1_dropShadow_0_4" result="shape"/>
</filter>
</defs>
</svg>
